<?xml version="1.0" standalone="no"?>
<!DOCTYPE svg PUBLIC "-//W3C//DTD SVG 20010904//EN"
 "http://www.w3.org/TR/2001/REC-SVG-20010904/DTD/svg10.dtd">
<svg version="1.0" xmlns="http://www.w3.org/2000/svg"
 width="200.000000pt" height="200.000000pt" viewBox="0 0 200.000000 200.000000"
 preserveAspectRatio="xMidYMid meet">

<g transform="translate(0.000000,200.000000) scale(0.100000,-0.100000)"
fill="#000000" stroke="none">
<path d="M109 1972 c-43 -22 -59 -38 -81 -81 l-28 -53 0 -838 0 -838 28 -53
c22 -43 38 -59 81 -81 l53 -28 838 0 838 0 53 28 c43 22 59 38 81 81 l28 53 0
838 0 838 -28 53 c-22 43 -38 59 -81 81 l-53 28 -838 0 -838 0 -53 -28z m191
-76 c0 -70 35 -237 115 -551 90 -351 168 -622 199 -691 23 -49 26 -51 127 -97
57 -25 105 -42 107 -37 5 14 -72 185 -123 275 -25 43 -45 81 -45 85 0 11 112
100 126 100 7 0 28 -24 45 -52 16 -29 28 -44 25 -33 -42 162 -73 327 -91 485
l-6 55 66 49 c36 27 67 47 69 45 2 -2 8 -49 14 -105 22 -194 106 -558 147
-633 13 -24 14 -19 14 64 1 114 -14 289 -40 480 -11 83 -21 158 -22 167 -2 18
114 111 125 100 4 -4 27 -119 52 -257 82 -453 126 -644 152 -666 8 -6 14 -17
14 -24 0 -15 -119 -107 -130 -100 -3 2 -17 39 -30 82 -13 43 -27 82 -31 86 -4
5 -32 -12 -63 -37 -67 -54 -93 -69 -111 -63 -7 3 12 -49 42 -116 l55 -122 -59
-52 c-32 -29 -66 -55 -75 -58 -18 -6 -40 3 -198 87 -58 31 -157 77 -220 103
-63 26 -117 49 -119 51 -3 2 5 14 16 27 l20 22 -44 145 c-98 323 -214 791
-250 1004 l-18 108 63 59 c34 32 67 59 72 59 6 0 10 -20 10 -44z m1277 -361
c39 -47 101 -173 115 -235 19 -81 2 -119 -75 -169 -71 -46 -82 -50 -67 -22 24
46 12 114 -40 219 -27 56 -54 102 -59 102 -18 0 -24 -95 -13 -200 23 -205 84
-373 164 -450 40 -39 82 -59 96 -46 3 4 -10 57 -31 118 -26 79 -33 116 -27
128 14 25 110 85 120 74 4 -5 20 -52 34 -104 14 -52 31 -114 38 -138 l12 -42
-44 -46 c-25 -25 -64 -59 -88 -76 -41 -28 -45 -29 -95 -18 -111 24 -189 98
-246 235 -52 123 -73 241 -69 375 3 102 6 121 31 172 24 49 40 65 103 108 42
27 84 50 94 50 10 0 32 -16 47 -35z m242 -924 c10 -7 3 -33 -39 -127 -28 -66
-57 -124 -63 -131 -7 -6 -139 -61 -295 -122 -156 -61 -307 -125 -336 -141 -62
-35 -66 -36 -66 -12 0 21 69 194 91 229 15 24 51 41 284 129 208 78 290 117
310 147 9 14 24 28 33 30 29 8 67 7 81 -2z"/>
<path d="M765 900 c9 -16 18 -30 21 -30 2 0 -2 14 -11 30 -9 17 -18 30 -21 30
-2 0 2 -13 11 -30z"/>
</g>
</svg>
